<?xml version="1.0" encoding="utf-8"?>
<!-- Svg Vector Icons : http://www.onlinewebfonts.com/icon -->
<!DOCTYPE svg PUBLIC "-//W3C//DTD SVG 1.1//EN" "http://www.w3.org/Graphics/SVG/1.1/DTD/svg11.dtd">
<svg version="1.1" xmlns="http://www.w3.org/2000/svg" xmlns:xlink="http://www.w3.org/1999/xlink" x="0px" y="0px" viewBox="0 0 1000 1000" enable-background="new 0 0 1000 1000" xml:space="preserve">
<metadata> Svg Vector Icons : http://www.onlinewebfonts.com/icon </metadata>
<g><g transform="translate(0.000000,512.000000) scale(0.100000,-0.100000)"><path d="M796.7,5003.3c-248.8-36.4-493.8-220.1-601-449.8c-76.6-162.7-93.8-290.9-93.8-759.9v-398.1h4077h4077v467c0,413.4-3.8,480.4-38.3,591.5c-70.8,229.7-250.7,415.4-499.6,516.8l-103.4,42.1l-3359.2,1.9C2408.4,5016.7,852.2,5011,796.7,5003.3z M1512.6,4572.7c283.3-141.6,306.3-535.9,42.1-712c-70.8-47.9-99.5-53.6-227.8-53.6s-157,5.7-227.8,53.6c-145.5,95.7-212.5,260.3-176.1,426.8c30.6,135.9,97.6,223.9,216.3,283.3C1269.5,4635.8,1384.4,4635.8,1512.6,4572.7z M2739.5,4570.7c300.5-149.3,298.6-587.6-5.7-735c-128.2-61.3-302.4-49.8-415.4,30.6c-116.8,82.3-178,199.1-176.1,342.6C2142.3,4519.1,2458.1,4710.5,2739.5,4570.7z"/><path d="M105.7,654.5l5.7-2321.8l44-107.2c97.6-241.2,260.3-407.7,486.2-495.7l120.6-47.9l3340.1-5.7c2360.1-3.8,3376.4,0,3464.5,15.3c312,53.6,562.8,264.1,650.8,549.3c38.3,122.5,38.3,172.3,38.3,2429v2304.6h-4077H100L105.7,654.5z M4232.5,585.6L4600,955V-74.7v-1027.9H3572.1H2542.4L2906-738.9l363.7,363.7L2351,543.5l-918.8,918.8l296.7,296.7l296.7,296.7l918.8-918.8l918.8-918.8L4232.5,585.6z"/><path d="M5229.7-3204.3c-74.7-38.3-118.7-78.5-160.8-147.4l-57.4-91.9l-5.7-451.7c-7.7-530.2,3.8-620.2,107.2-733.1c137.8-151.2-61.3-139.7,2272-145.5c1533.2-3.8,2113.2,0,2189.7,15.3c74.6,17.2,124.4,44,185.6,99.5c134,122.5,145.5,191.4,137.8,750.3l-5.7,465.1l-57.4,91.9c-42.1,68.9-86.2,109.1-160.8,147.4l-101.4,53.6H7452H5331.2L5229.7-3204.3z"/></g></g>
</svg>